<svg width="665" height="831" viewBox="0 0 665 831" fill="none" xmlns="http://www.w3.org/2000/svg">
<rect x="204.5" y="2.5" width="25" height="195" rx="4.5" stroke="white" stroke-width="5"/>
<rect x="484.5" y="2.5" width="25" height="195" rx="4.5" stroke="white" stroke-width="5"/>
<path class="Svg-Path-Animation" fill-rule="evenodd" clip-rule="evenodd" d="M482 86H232V91H482V86ZM512 91H565C617.467 91 660 133.533 660 186V281H70V186C70 133.533 112.533 91 165 91H202V86H165C109.772 86 65 130.772 65 186V281V286H70H660H665V281V186C665 130.772 620.228 86 565 86H512V91Z" fill="white"/>
<path class="Svg-Path-Animation" d="M662.5 696C662.5 749.848 618.848 793.5 565 793.5H165C111.152 793.5 67.5 749.848 67.5 696V298.5H662.5V696Z" stroke="white" stroke-width="5"/>
<circle cx="185.5" cy="381.5" r="37.5" fill="#589BFF"/>
<circle cx="302.5" cy="381.5" r="35" stroke="white" stroke-width="5"/>
<circle cx="419.5" cy="381.5" r="35" stroke="white" stroke-width="5"/>
<circle cx="544.5" cy="381.5" r="35" stroke="white" stroke-width="5"/>
<circle cx="185.5" cy="508.5" r="35" stroke="white" stroke-width="5"/>
<circle cx="302.5" cy="508.5" r="35" stroke="white" stroke-width="5"/>
<circle cx="419.5" cy="508.5" r="35" stroke="white" stroke-width="5"/>
<circle cx="544.5" cy="508.5" r="35" stroke="white" stroke-width="5"/>
<circle cx="185.5" cy="648.5" r="35" stroke="white" stroke-width="5"/>
<circle cx="302.5" cy="648.5" r="35" stroke="white" stroke-width="5"/>
<circle cx="419.5" cy="648.5" r="37.5" fill="#D9D9D9"/>
<circle cx="544.5" cy="648.5" r="37.5" fill="#D9D9D9"/>
<path class="Svg-Path-Animation" d="M248.055 252V195.125H261.219C263.432 195.151 265.516 195.385 267.469 195.828C269.448 196.245 271.271 196.844 272.938 197.625C275.255 198.693 277.299 200.099 279.07 201.844C280.867 203.562 282.299 205.555 283.367 207.82C284.331 209.747 285.06 211.857 285.555 214.148C286.076 216.44 286.349 218.888 286.375 221.492V225.672C286.375 228.172 286.128 230.542 285.633 232.781C285.164 235.021 284.474 237.078 283.562 238.953C282.625 240.906 281.44 242.677 280.008 244.266C278.576 245.854 276.974 247.208 275.203 248.328C273.328 249.5 271.206 250.398 268.836 251.023C266.492 251.648 263.953 251.974 261.219 252H248.055ZM255.398 201.062V246.102H261.219C263.302 246.076 265.19 245.815 266.883 245.32C268.602 244.826 270.125 244.122 271.453 243.211C272.859 242.273 274.07 241.128 275.086 239.773C276.128 238.393 276.948 236.857 277.547 235.164C278.068 233.784 278.458 232.299 278.719 230.711C278.979 229.096 279.122 227.417 279.148 225.672V221.414C279.122 219.643 278.966 217.951 278.68 216.336C278.419 214.695 278.016 213.172 277.469 211.766C276.766 209.943 275.815 208.302 274.617 206.844C273.445 205.359 272 204.161 270.281 203.25C269.057 202.573 267.69 202.052 266.18 201.688C264.669 201.297 263.016 201.089 261.219 201.062H255.398ZM324.617 252C324.331 251.453 324.096 250.776 323.914 249.969C323.758 249.135 323.641 248.276 323.562 247.391C322.833 248.12 322.013 248.81 321.102 249.461C320.216 250.112 319.24 250.685 318.172 251.18C317.078 251.674 315.919 252.065 314.695 252.352C313.471 252.638 312.169 252.781 310.789 252.781C308.549 252.781 306.518 252.456 304.695 251.805C302.898 251.154 301.375 250.268 300.125 249.148C298.849 248.055 297.859 246.753 297.156 245.242C296.479 243.706 296.141 242.052 296.141 240.281C296.141 237.964 296.596 235.932 297.508 234.188C298.445 232.443 299.76 230.984 301.453 229.812C303.146 228.667 305.177 227.807 307.547 227.234C309.943 226.661 312.612 226.375 315.555 226.375H323.445V223.055C323.445 221.779 323.211 220.633 322.742 219.617C322.273 218.602 321.609 217.729 320.75 217C319.891 216.297 318.836 215.75 317.586 215.359C316.362 214.969 314.982 214.773 313.445 214.773C312.013 214.773 310.724 214.956 309.578 215.32C308.458 215.685 307.508 216.167 306.727 216.766C305.945 217.365 305.333 218.081 304.891 218.914C304.474 219.721 304.266 220.568 304.266 221.453H297C297.026 219.917 297.417 218.406 298.172 216.922C298.953 215.438 300.073 214.096 301.531 212.898C302.964 211.727 304.708 210.776 306.766 210.047C308.849 209.318 311.206 208.953 313.836 208.953C316.232 208.953 318.458 209.253 320.516 209.852C322.573 210.424 324.357 211.297 325.867 212.469C327.352 213.667 328.523 215.151 329.383 216.922C330.242 218.693 330.672 220.763 330.672 223.133V242.781C330.672 244.188 330.802 245.685 331.062 247.273C331.323 248.836 331.688 250.203 332.156 251.375V252H324.617ZM311.844 246.492C313.25 246.492 314.565 246.31 315.789 245.945C317.013 245.581 318.133 245.099 319.148 244.5C320.138 243.901 320.997 243.224 321.727 242.469C322.456 241.688 323.029 240.88 323.445 240.047V231.492H316.727C314.227 231.492 312.039 231.714 310.164 232.156C308.315 232.573 306.844 233.224 305.75 234.109C304.969 234.734 304.37 235.477 303.953 236.336C303.562 237.195 303.367 238.172 303.367 239.266C303.367 240.307 303.536 241.271 303.875 242.156C304.24 243.042 304.773 243.797 305.477 244.422C306.18 245.073 307.065 245.581 308.133 245.945C309.201 246.31 310.438 246.492 311.844 246.492ZM346.023 209.734H367.625V245.75H381.414V252H346.023V245.75H360.398V216.023H346.023V209.734ZM359.461 198.641C359.461 198.016 359.552 197.43 359.734 196.883C359.943 196.336 360.255 195.867 360.672 195.477C361.01 195.138 361.44 194.878 361.961 194.695C362.508 194.487 363.12 194.383 363.797 194.383C364.474 194.383 365.073 194.487 365.594 194.695C366.115 194.878 366.544 195.138 366.883 195.477C367.299 195.841 367.612 196.297 367.82 196.844C368.029 197.391 368.133 197.99 368.133 198.641C368.133 199.812 367.768 200.789 367.039 201.57C366.31 202.352 365.229 202.742 363.797 202.742C362.339 202.742 361.245 202.352 360.516 201.57C359.812 200.789 359.461 199.812 359.461 198.641ZM394.07 192H415.672V245.75H429.461V252H394.07V245.75H408.445V198.289H394.07V192ZM444.383 269.07C443.706 269.07 442.911 268.992 442 268.836C441.089 268.68 440.398 268.549 439.93 268.445L441.102 262.547C441.753 262.599 442.391 262.638 443.016 262.664C443.667 262.716 444.174 262.742 444.539 262.742C445.529 262.742 446.427 262.469 447.234 261.922C448.068 261.375 448.81 260.724 449.461 259.969C450.086 259.214 450.62 258.432 451.062 257.625C451.531 256.818 451.896 256.154 452.156 255.633L455.047 250.008L436.844 209.734H444.93L456.531 237L458.406 242.117L460.398 237.156L471.297 209.734H479.383L457.938 258.523C457.443 259.617 456.805 260.776 456.023 262C455.268 263.224 454.344 264.357 453.25 265.398C452.156 266.44 450.88 267.312 449.422 268.016C447.964 268.719 446.284 269.07 444.383 269.07Z" fill="white"/>
<path class="Svg-Path-Animation" d="M82.6943 526.676L82.6939 639.5L82.6939 691.199C82.6939 701.667 84.3493 712.069 87.5986 722.021L89.1517 726.777C96.1127 748.095 111.049 765.895 130.835 776.451V776.451C143.418 783.164 157.46 786.676 171.722 786.676L219.694 786.676" stroke="#1AC572" stroke-width="40"/>
</svg>
